# xmcd CD database file
#
# Track frame offsets:
#	150
#	18340
#	42752
#	90100
#	119402
#	147719
#	170624
#	192556
#	217858
#	253441
#	272534
#
# Disc length: 3971 seconds
#
# Revision: 3
# Processed by: cddbd v1.5.2PL0 Copyright (c) Steve Scherf et al.
# Submitted via: CDex 1.51
#
DISCID=9d0f810b
DTITLE=D¿em - List do R., vol. 1
DYEAR=1995
DGENRE=Blues
TTITLE0=Balada o dziwnym malarzu
TTITLE1=Dzieñ w którym pêk³o piek³o
TTITLE2=Naiwne pytania
TTITLE3=Tylko ja i ty
TTITLE4=Wehiku³ czasu
TTITLE5=Bo¿e daj dom
TTITLE6=Wokó³ sami lunatycy
TTITLE7=Ma³a aleja ró¿
TTITLE8=Skazany na bluesa
TTITLE9=Kiepska gra
TTITLE10=Kim jestem, jestem sobie
EXTD=YEAR: 1995
EXTT0=
EXTT1=
EXTT2=
EXTT3=
EXTT4=
EXTT5=
EXTT6=
EXTT7=
EXTT8=
EXTT9=
EXTT10=
PLAYORDER=
